<svg width="40" height="40" viewBox="0 0 40 40" fill="none" xmlns="http://www.w3.org/2000/svg">
<path d="M37.3672 15.2786C36.1056 10.6411 33.1136 6.77246 28.9422 4.38525C24.7709 1.99804 19.9189 1.37767 15.2817 2.6393C12.8194 3.30902 10.5773 4.4612 8.61753 6.06401C8.20239 6.4035 7.79737 6.7664 7.41406 7.14176C7.35334 7.20126 7.30494 7.27215 7.27162 7.35036C7.23829 7.42858 7.2207 7.51259 7.21985 7.5976C7.219 7.68261 7.2349 7.76696 7.26665 7.84583C7.2984 7.92469 7.34537 7.99654 7.40488 8.05725C7.52508 8.17987 7.68906 8.24972 7.86076 8.25144C7.94578 8.2523 8.03014 8.2364 8.10901 8.20465C8.18788 8.1729 8.25973 8.12594 8.32045 8.06643C8.67613 7.71768 9.05186 7.38088 9.43702 7.06598C11.2552 5.57919 13.3359 4.50987 15.6214 3.88848C19.9257 2.71795 24.428 3.29336 28.2992 5.50863C32.1705 7.72391 34.9473 11.3145 36.1179 15.6182C38.5346 24.5026 33.2717 33.6966 24.387 36.1131C20.0831 37.2836 15.5807 36.7082 11.7094 34.4928C7.83812 32.2773 5.06136 28.6869 3.89073 24.3832C2.88515 20.6868 3.15696 16.8794 4.67671 13.3721C5.03873 12.5374 5.46773 11.7333 5.95949 10.9678C6.05231 10.8234 6.08396 10.648 6.04748 10.4803C6.011 10.3126 5.90938 10.1662 5.76498 10.0734C5.62058 9.98059 5.44522 9.94894 5.27748 9.98541C5.10974 10.0219 4.96336 10.1235 4.87055 10.2679C4.3411 11.0924 3.87926 11.9585 3.48958 12.8575C1.8511 16.6372 1.55807 20.74 2.64146 24.723C3.90302 29.3603 6.89502 33.2289 11.0664 35.6161C13.825 37.1949 16.8806 38.0008 19.9753 38.0007C21.5804 37.9995 23.1782 37.7848 24.7266 37.3621C34.3012 34.7583 39.9711 24.8523 37.3672 15.2786Z" fill="#FF8D40"/>
<path d="M10.8938 27.9807C13.1168 30.5147 16.3766 32.1175 20.0048 32.1175C26.6865 32.1175 32.1225 26.682 32.1225 20.0008C32.1225 13.3196 26.6865 7.88406 20.0048 7.88406C19.563 7.88425 19.1215 7.90842 18.6823 7.95647C18.675 7.95647 18.668 7.95799 18.6609 7.959C12.6094 8.62973 7.88713 13.7738 7.88713 20.0008C7.88713 22.9898 8.97591 25.7292 10.7767 27.8444C10.8093 27.895 10.8486 27.9409 10.8938 27.9807ZM20.0048 30.823C17.1604 30.823 14.569 29.7195 12.6353 27.9188C14.8235 27.4443 17.9372 26.2825 20.3317 23.438C21.1169 22.5028 21.7643 21.4602 22.2543 20.3418C24.8945 23.1005 28.0241 24.2486 29.7526 24.7003C28.0001 28.3203 24.289 30.823 20.0043 30.823H20.0048ZM30.8279 20.0008C30.829 21.1879 30.6339 22.3671 30.2504 23.4907C28.6 23.0777 24.1555 21.5925 21.4238 17.1589C19.5515 14.1198 19.2993 11.0429 19.3659 9.19807C19.5774 9.18561 19.7903 9.17853 20.0048 9.17853C25.9723 9.17836 30.8274 14.0333 30.8274 20.0008H30.8279ZM18.0664 9.35266C18.0204 11.3824 18.3438 14.6269 20.3218 17.8375C20.6226 18.326 20.9512 18.7969 21.3058 19.2479C21.3058 19.2494 21.3043 19.2509 21.3036 19.2526C20.8321 20.4912 20.1717 21.6188 19.3421 22.6037C16.8852 25.5219 13.5636 26.4831 11.591 26.799C10.0306 24.8769 9.18013 22.4759 9.18271 20.0003C9.1812 14.6947 13.0196 10.2691 18.0664 9.35266Z" fill="#FF8D40"/>
<path d="M37.3672 15.2786C36.1056 10.6411 33.1136 6.77246 28.9422 4.38525C24.7709 1.99804 19.9189 1.37767 15.2817 2.6393C12.8194 3.30902 10.5773 4.4612 8.61753 6.06401C8.20239 6.4035 7.79737 6.7664 7.41406 7.14176C7.35334 7.20126 7.30494 7.27215 7.27162 7.35036C7.23829 7.42858 7.2207 7.51259 7.21985 7.5976C7.219 7.68261 7.2349 7.76696 7.26665 7.84583C7.2984 7.92469 7.34537 7.99654 7.40488 8.05725C7.52508 8.17987 7.68906 8.24972 7.86076 8.25144C7.94578 8.2523 8.03014 8.2364 8.10901 8.20465C8.18788 8.1729 8.25973 8.12594 8.32045 8.06643C8.67613 7.71768 9.05186 7.38088 9.43702 7.06598C11.2552 5.57919 13.3359 4.50987 15.6214 3.88848C19.9257 2.71795 24.428 3.29336 28.2992 5.50863C32.1705 7.72391 34.9473 11.3145 36.1179 15.6182C38.5346 24.5026 33.2717 33.6966 24.387 36.1131C20.0831 37.2836 15.5807 36.7082 11.7094 34.4928C7.83812 32.2773 5.06136 28.6869 3.89073 24.3832C2.88515 20.6868 3.15696 16.8794 4.67671 13.3721C5.03873 12.5374 5.46773 11.7333 5.95949 10.9678C6.05231 10.8234 6.08396 10.648 6.04748 10.4803C6.011 10.3126 5.90938 10.1662 5.76498 10.0734C5.62058 9.98059 5.44522 9.94894 5.27748 9.98541C5.10974 10.0219 4.96336 10.1235 4.87055 10.2679C4.3411 11.0924 3.87926 11.9585 3.48958 12.8575C1.8511 16.6372 1.55807 20.74 2.64146 24.723C3.90302 29.3603 6.89502 33.2289 11.0664 35.6161C13.825 37.1949 16.8806 38.0008 19.9753 38.0007C21.5804 37.9995 23.1782 37.7848 24.7266 37.3621C34.3012 34.7583 39.9711 24.8523 37.3672 15.2786Z" stroke="#FF8D40" stroke-width="0.5"/>
<path d="M10.8938 27.9807C13.1168 30.5147 16.3766 32.1175 20.0048 32.1175C26.6865 32.1175 32.1225 26.682 32.1225 20.0008C32.1225 13.3196 26.6865 7.88406 20.0048 7.88406C19.563 7.88425 19.1215 7.90842 18.6823 7.95647C18.675 7.95647 18.668 7.95799 18.6609 7.959C12.6094 8.62973 7.88713 13.7738 7.88713 20.0008C7.88713 22.9898 8.97591 25.7292 10.7767 27.8444C10.8093 27.895 10.8486 27.9409 10.8938 27.9807ZM20.0048 30.823C17.1604 30.823 14.569 29.7195 12.6353 27.9188C14.8235 27.4443 17.9372 26.2825 20.3317 23.438C21.1169 22.5028 21.7643 21.4602 22.2543 20.3418C24.8945 23.1005 28.0241 24.2486 29.7526 24.7003C28.0001 28.3203 24.289 30.823 20.0043 30.823H20.0048ZM30.8279 20.0008C30.829 21.1879 30.6339 22.3671 30.2504 23.4907C28.6 23.0777 24.1555 21.5925 21.4238 17.1589C19.5515 14.1198 19.2993 11.0429 19.3659 9.19807C19.5774 9.18561 19.7903 9.17853 20.0048 9.17853C25.9723 9.17836 30.8274 14.0333 30.8274 20.0008H30.8279ZM18.0664 9.35266C18.0204 11.3824 18.3438 14.6269 20.3218 17.8375C20.6226 18.326 20.9512 18.7969 21.3058 19.2479C21.3058 19.2494 21.3043 19.2509 21.3036 19.2526C20.8321 20.4912 20.1717 21.6188 19.3421 22.6037C16.8852 25.5219 13.5636 26.4831 11.591 26.799C10.0306 24.8769 9.18013 22.4759 9.18271 20.0003C9.1812 14.6947 13.0196 10.2691 18.0664 9.35266Z" stroke="#FF8D40" stroke-width="0.5"/>
</svg>
