<svg width="40" height="40" viewBox="0 0 40 40" fill="none" xmlns="http://www.w3.org/2000/svg">
<path d="M15.7555 2H5.73553C3.67576 2 2.00011 3.69165 2.00011 5.7711V7.27883C2.00359 7.49359 2.09054 7.69836 2.24221 7.84899C2.39388 7.99962 2.59811 8.08404 2.81087 8.08404C3.02362 8.08404 3.22786 7.99962 3.37952 7.84899C3.53119 7.69836 3.61814 7.49359 3.62162 7.27883V5.7711C3.62226 5.2053 3.84518 4.66285 4.24147 4.26277C4.63777 3.86269 5.17508 3.63764 5.73553 3.637H15.7555C16.316 3.63764 16.8533 3.86268 17.2496 4.26276C17.646 4.66283 17.8689 5.20528 17.8696 5.7711V15.8868C17.8689 16.4526 17.646 16.9951 17.2496 17.3952C16.8533 17.7953 16.316 18.0204 15.7555 18.0211H5.73553C5.17506 18.0204 4.63775 17.7953 4.24146 17.3952C3.84517 16.995 3.62226 16.4526 3.62162 15.8868V10.3452C3.62339 10.2366 3.60372 10.1287 3.56376 10.0279C3.52381 9.927 3.46437 9.83517 3.38891 9.75773C3.31345 9.68029 3.22348 9.61879 3.12424 9.57681C3.02499 9.53483 2.91847 9.51321 2.81087 9.51321C2.70326 9.51321 2.59674 9.53483 2.4975 9.57681C2.39826 9.61879 2.30828 9.68029 2.23282 9.75773C2.15736 9.83517 2.09792 9.927 2.05797 10.0279C2.01802 10.1287 1.99835 10.2366 2.00011 10.3452V15.8868C2.00011 17.9662 3.67576 19.6579 5.73553 19.6579H15.7555C17.8153 19.6579 19.4909 17.9662 19.4909 15.8868V5.7711C19.4909 3.69165 17.8153 2 15.7555 2Z" fill="#FF8D40"/>
<path d="M7.6725 16.5612H13.8188C14.5093 16.5601 15.1711 16.2827 15.6594 15.7897C16.1476 15.2968 16.4223 14.6286 16.4233 13.9315V7.72654C16.4223 7.02948 16.1476 6.36126 15.6594 5.86833C15.1711 5.37541 14.5093 5.098 13.8188 5.09689H7.6725C6.98199 5.09794 6.32006 5.37533 5.83179 5.86826C5.34352 6.36118 5.06876 7.02944 5.06773 7.72654V13.9315C5.06876 14.6286 5.34352 15.2969 5.83179 15.7898C6.32006 16.2827 6.98199 16.5601 7.6725 16.5612ZM6.68902 7.72654C6.68931 7.46331 6.79302 7.21094 6.9774 7.0248C7.16177 6.83867 7.41175 6.73397 7.6725 6.73368H13.8188C14.0795 6.73397 14.3295 6.83867 14.5138 7.02482C14.6981 7.21096 14.8018 7.46333 14.802 7.72654V13.9315C14.8018 14.1947 14.6981 14.447 14.5137 14.6331C14.3294 14.8192 14.0795 14.9239 13.8188 14.9242H7.6725C7.41177 14.9239 7.16179 14.8193 6.97741 14.6332C6.79303 14.4471 6.68931 14.1947 6.68902 13.9315V7.72654Z" fill="#FF8D40"/>
<path d="M34.265 2H24.2448C22.1851 2 20.5094 3.69165 20.5094 5.7711V7.27883C20.5129 7.49359 20.5998 7.69836 20.7515 7.84899C20.9032 7.99962 21.1074 8.08404 21.3202 8.08404C21.5329 8.08404 21.7372 7.99962 21.8888 7.84899C22.0405 7.69836 22.1274 7.49359 22.1309 7.27883V5.7711C22.1316 5.2053 22.3545 4.66285 22.7508 4.26277C23.1471 3.86269 23.6844 3.63764 24.2448 3.637H34.265C34.8255 3.63764 35.3628 3.86269 35.7591 4.26277C36.1554 4.66285 36.3783 5.2053 36.3789 5.7711V15.8868C36.3783 16.4526 36.1554 16.995 35.7591 17.3952C35.3628 17.7953 34.8255 18.0204 34.265 18.0211H24.2448C23.6843 18.0205 23.1469 17.7954 22.7505 17.3953C22.3541 16.9952 22.1311 16.4527 22.1305 15.8868V10.3452C22.1323 10.2366 22.1126 10.1287 22.0726 10.0279C22.0327 9.927 21.9732 9.83517 21.8978 9.75773C21.8223 9.68029 21.7323 9.61879 21.6331 9.57681C21.5339 9.53483 21.4273 9.51321 21.3197 9.51321C21.2121 9.51321 21.1056 9.53483 21.0064 9.57681C20.9071 9.61879 20.8172 9.68029 20.7417 9.75773C20.6662 9.83517 20.6068 9.927 20.5668 10.0279C20.5269 10.1287 20.5072 10.2366 20.509 10.3452V15.8868C20.509 17.9662 22.1846 19.6579 24.2444 19.6579H34.2646C36.3241 19.6579 38 17.9662 38 15.8868V5.7711C38 3.69165 36.3246 2 34.265 2Z" fill="#FF8D40"/>
<path d="M26.1818 16.5612H32.3281C33.0186 16.5601 33.6805 16.2827 34.1688 15.7898C34.657 15.2969 34.9318 14.6286 34.9328 13.9315V7.72654C34.9318 7.02944 34.657 6.36118 34.1688 5.86826C33.6805 5.37533 33.0186 5.09794 32.3281 5.09689H26.1818C25.4913 5.09794 24.8293 5.37533 24.3411 5.86826C23.8528 6.36118 23.578 7.02944 23.577 7.72654V13.9315C23.578 14.6286 23.8528 15.2969 24.3411 15.7898C24.8293 16.2827 25.4913 16.5601 26.1818 16.5612ZM25.1985 7.72654C25.1988 7.46333 25.3024 7.21096 25.4868 7.02482C25.6711 6.83867 25.9211 6.73397 26.1818 6.73368H32.3281C32.5888 6.73397 32.8387 6.83867 33.0231 7.02482C33.2074 7.21096 33.3111 7.46333 33.3113 7.72654V13.9315C33.311 14.1947 33.2073 14.447 33.023 14.6331C32.8387 14.8192 32.5887 14.9239 32.3281 14.9242H26.1818C25.9211 14.9239 25.6712 14.8192 25.4868 14.6331C25.3025 14.447 25.1988 14.1947 25.1985 13.9315V7.72654Z" fill="#FF8D40"/>
<path d="M15.7555 20.3408H5.73555C3.67577 20.3408 2.00013 22.0327 2.00013 24.1119V25.6197C2.00361 25.8344 2.09056 26.0392 2.24223 26.1898C2.3939 26.3405 2.59813 26.4249 2.81089 26.4249C3.02364 26.4249 3.22787 26.3405 3.37954 26.1898C3.53121 26.0392 3.61816 25.8344 3.62164 25.6197V24.1119C3.62228 23.5461 3.84519 23.0037 4.24149 22.6036C4.63779 22.2035 5.1751 21.9785 5.73555 21.9778H15.7555C16.316 21.9785 16.8533 22.2035 17.2496 22.6036C17.646 23.0037 17.8689 23.5461 17.8696 24.1119V34.2276C17.869 34.7934 17.6461 35.3359 17.2497 35.7361C16.8534 36.1362 16.316 36.3613 15.7555 36.3619H5.73555C5.17506 36.3613 4.63772 36.1362 4.24141 35.7361C3.84511 35.3359 3.62222 34.7934 3.62164 34.2276V28.6872C3.61816 28.4724 3.53121 28.2676 3.37954 28.117C3.22787 27.9664 3.02364 27.8819 2.81089 27.8819C2.59813 27.8819 2.3939 27.9664 2.24223 28.117C2.09056 28.2676 2.00361 28.4724 2.00013 28.6872V34.2287C2.00013 36.3081 3.67577 38 5.73555 38H15.7555C17.8153 38 19.4909 36.3081 19.4909 34.2287V24.1119C19.4909 22.0327 17.8153 20.3408 15.7555 20.3408Z" fill="#FF8D40"/>
<path d="M7.6725 34.902H13.8188C14.5093 34.9009 15.1711 34.6235 15.6594 34.1306C16.1476 33.6376 16.4223 32.9694 16.4233 32.2724V26.0674C16.4223 25.3703 16.1476 24.7021 15.6594 24.2092C15.1711 23.7162 14.5093 23.4388 13.8188 23.4377H7.6725C6.98199 23.4388 6.32006 23.7162 5.83179 24.2091C5.34352 24.702 5.06876 25.3703 5.06773 26.0674V32.2724C5.06876 32.9695 5.34352 33.6377 5.83179 34.1306C6.32006 34.6236 6.98199 34.901 7.6725 34.902ZM6.68902 26.0674C6.68931 25.8042 6.79303 25.5518 6.97741 25.3657C7.16179 25.1796 7.41177 25.075 7.6725 25.0747H13.8188C14.0795 25.075 14.3294 25.1797 14.5137 25.3658C14.6981 25.5519 14.8018 25.8042 14.802 26.0674V32.2724C14.8018 32.5355 14.6981 32.7879 14.5137 32.9739C14.3294 33.16 14.0795 33.2647 13.8188 33.265H7.6725C7.41177 33.2648 7.16179 33.1601 6.97741 32.974C6.79303 32.7879 6.68931 32.5356 6.68902 32.2724V26.0674Z" fill="#FF8D40"/>
<path d="M34.265 20.3408H24.2448C22.1851 20.3408 20.5094 22.0327 20.5094 24.1119V25.6197C20.5129 25.8344 20.5998 26.0392 20.7515 26.1898C20.9032 26.3405 21.1074 26.4249 21.3202 26.4249C21.5329 26.4249 21.7372 26.3405 21.8888 26.1898C22.0405 26.0392 22.1274 25.8344 22.1309 25.6197V24.1119C22.1316 23.5461 22.3545 23.0037 22.7508 22.6036C23.1471 22.2035 23.6844 21.9785 24.2448 21.9778H34.265C34.8255 21.9785 35.3628 22.2035 35.7591 22.6036C36.1554 23.0037 36.3783 23.5461 36.3789 24.1119V34.2276C36.3783 34.7934 36.1554 35.3359 35.7591 35.7361C35.3628 36.1362 34.8255 36.3613 34.265 36.3619H24.2448C23.6843 36.3614 23.1468 36.1364 22.7504 35.7362C22.354 35.3361 22.1311 34.7935 22.1305 34.2276V28.6872C22.127 28.4724 22.0401 28.2676 21.8884 28.117C21.7367 27.9664 21.5325 27.8819 21.3197 27.8819C21.107 27.8819 20.9027 27.9664 20.7511 28.117C20.5994 28.2676 20.5125 28.4724 20.509 28.6872V34.2287C20.509 36.3081 22.1846 38 24.2444 38H34.2646C36.3241 38 38 36.3081 38 34.2287V24.1119C38 22.0327 36.3246 20.3408 34.265 20.3408Z" fill="#FF8D40"/>
<path d="M26.1818 34.902H32.3281C33.0186 34.901 33.6805 34.6236 34.1688 34.1306C34.657 33.6377 34.9318 32.9695 34.9328 32.2724V26.0674C34.9318 25.3703 34.657 24.702 34.1688 24.2091C33.6805 23.7162 33.0186 23.4388 32.3281 23.4377H26.1818C25.4913 23.4388 24.8293 23.7162 24.3411 24.2091C23.8528 24.702 23.578 25.3703 23.577 26.0674V32.2724C23.578 32.9695 23.8528 33.6377 24.3411 34.1306C24.8293 34.6236 25.4913 34.901 26.1818 34.902ZM25.1985 26.0674C25.1988 25.8042 25.3025 25.5519 25.4868 25.3658C25.6712 25.1797 25.9211 25.075 26.1818 25.0747H32.3281C32.5887 25.075 32.8387 25.1797 33.023 25.3658C33.2073 25.5519 33.311 25.8042 33.3113 26.0674V32.2724C33.311 32.5355 33.2073 32.7879 33.023 32.9739C32.8387 33.16 32.5887 33.2647 32.3281 33.265H26.1818C25.9211 33.2647 25.6712 33.16 25.4868 32.9739C25.3025 32.7879 25.1988 32.5355 25.1985 32.2724V26.0674Z" fill="#FF8D40"/>
</svg>
