<svg width="40" height="40" viewBox="0 0 40 40" fill="none" xmlns="http://www.w3.org/2000/svg">
<mask id="path-1-inside-1_803_16102" fill="white">
<path d="M32.5704 4.55117C29.2011 2.90612 24.7367 2.00009 19.9995 2.00009C16.9032 2.00009 13.8526 2.39698 11.1776 3.1481C10.3971 3.36606 9.63081 3.62189 8.88218 3.91441C8.79787 3.94752 8.72177 3.99498 8.65821 4.05409C8.59466 4.11319 8.54491 4.18277 8.51179 4.25886C8.44491 4.41254 8.44985 4.5834 8.52553 4.73386C8.60121 4.88432 8.74143 5.00205 8.91535 5.06115C9.00146 5.09041 9.09325 5.1044 9.18548 5.10232C9.27772 5.10024 9.36858 5.08212 9.45289 5.04901C10.1542 4.77515 10.872 4.53561 11.603 4.33148C14.1423 3.61864 17.0458 3.24179 19.9995 3.24179C24.5029 3.24179 28.726 4.09274 31.8907 5.63795C34.9238 7.11888 36.5941 9.04628 36.5941 11.0666C36.5941 13.0868 34.9238 15.0141 31.8907 16.495C28.7258 18.0402 24.5031 18.8912 19.9995 18.8912C15.496 18.8912 11.2732 18.0402 8.10856 16.495C5.07548 15.0141 3.40521 13.0867 3.40521 11.0666C3.40521 9.90805 3.94777 8.78654 5.01772 7.73335C5.43213 7.32532 5.92552 6.9307 6.48416 6.5603C6.62987 6.46043 6.72531 6.31395 6.74989 6.15246C6.77447 5.99096 6.72623 5.8274 6.61557 5.69706C6.5049 5.56672 6.34069 5.48003 6.15836 5.45571C5.97602 5.43139 5.79017 5.47137 5.64089 5.56704C5.00912 5.98589 4.44755 6.43576 3.97208 6.90388C2.68186 8.17368 2 9.61326 2 11.0666V28.9336C2 31.4257 3.92803 33.7395 7.42926 35.449C10.7987 37.0941 15.2629 38.0001 19.9999 38.0001C24.7369 38.0001 29.2013 37.0941 32.5707 35.449C36.0716 33.7395 38 31.4257 38 28.9336V11.0666C37.9993 8.57445 36.0712 6.2605 32.5704 4.55117ZM36.5941 28.9336C36.5941 30.9528 34.9238 32.8813 31.8907 34.3622C28.7258 35.9074 24.5031 36.7584 19.9995 36.7584C15.496 36.7584 11.2732 35.9074 8.10856 34.3622C5.07548 32.8813 3.40521 30.9539 3.40521 28.9336V14.6219C3.43519 14.6579 3.467 14.6936 3.49807 14.7295C3.52568 14.7618 3.55291 14.7941 3.58088 14.8253C3.61635 14.865 3.654 14.9044 3.69056 14.944C3.71671 14.9721 3.74193 15.0004 3.76862 15.0283C3.80994 15.0717 3.85326 15.1147 3.89658 15.1575C3.92017 15.1813 3.94283 15.206 3.96678 15.2288C4.01394 15.2753 4.06312 15.3213 4.11193 15.3674C4.13295 15.3872 4.15306 15.4073 4.17445 15.427C4.22819 15.4767 4.28413 15.526 4.33897 15.5752C4.35725 15.5914 4.3737 15.6076 4.39162 15.6226C4.44975 15.6733 4.50952 15.7234 4.56967 15.7734C4.58648 15.7875 4.60239 15.8017 4.61939 15.8156C4.68593 15.8705 4.75448 15.9248 4.82358 15.9791C4.83473 15.988 4.84552 15.9968 4.85685 16.0057C4.92997 16.0624 5.00437 16.1188 5.07987 16.1747L5.10418 16.1931C5.18401 16.2521 5.26542 16.3105 5.34841 16.3684C5.3528 16.3714 5.357 16.3747 5.36139 16.3776C5.44109 16.4332 5.52225 16.4885 5.60488 16.5433L5.62828 16.5595C5.71712 16.6185 5.80749 16.6768 5.89938 16.7346L5.90468 16.738C5.98731 16.79 6.07176 16.8413 6.15676 16.8925C6.16828 16.8995 6.17943 16.9066 6.19095 16.9134C6.28125 16.9675 6.37375 17.0208 6.46643 17.0739C6.4732 17.0777 6.47959 17.0817 6.48636 17.0856C6.56789 17.1318 6.65088 17.1775 6.73479 17.223C6.75307 17.2335 6.77226 17.244 6.79146 17.2553C6.87865 17.3023 6.96731 17.3487 7.0567 17.3949C7.07316 17.4035 7.08906 17.4122 7.1057 17.4207C7.21184 17.4751 7.31964 17.529 7.42907 17.5823C10.7985 19.2275 15.2627 20.1334 19.9997 20.1334C24.7367 20.1334 29.2011 19.2275 32.5706 17.5823C32.6802 17.529 32.788 17.4751 32.8939 17.4207C32.9106 17.4122 32.9265 17.4035 32.9429 17.3949C33.0323 17.3487 33.121 17.3023 33.2082 17.2553C33.2265 17.2448 33.2458 17.2343 33.2648 17.223C33.3484 17.1775 33.4317 17.1318 33.5133 17.0856C33.52 17.0817 33.5264 17.0777 33.5332 17.0739C33.6262 17.0208 33.7184 16.9675 33.8087 16.9134C33.8202 16.9066 33.8314 16.8995 33.8427 16.8925C33.9279 16.8413 34.0123 16.79 34.095 16.738L34.1003 16.7346C34.192 16.6767 34.2824 16.6184 34.3714 16.5595L34.3948 16.5433C34.4771 16.4886 34.5583 16.4334 34.6382 16.3776C34.6426 16.3747 34.6468 16.3714 34.6512 16.3684C34.7341 16.3104 34.8155 16.252 34.8955 16.1931L34.9198 16.1747C34.9953 16.1188 35.07 16.0624 35.1428 16.0057C35.1541 15.9968 35.1649 15.988 35.1761 15.9791C35.2452 15.9248 35.3135 15.8705 35.3802 15.8156C35.3972 15.8017 35.4132 15.7875 35.43 15.7734C35.4901 15.7234 35.5499 15.6733 35.608 15.6226C35.6263 15.6064 35.6429 15.5903 35.6607 15.5752C35.7164 15.5268 35.772 15.4767 35.8252 15.427C35.8466 15.4073 35.8667 15.3872 35.8877 15.3674C35.9365 15.3213 35.9857 15.2753 36.0329 15.2288C36.0568 15.2052 36.0795 15.1813 36.1031 15.1575C36.1458 15.1146 36.1892 15.0716 36.231 15.0283C36.2577 15.0004 36.2829 14.9721 36.3091 14.944C36.3456 14.9044 36.3822 14.865 36.4188 14.8253C36.4471 14.7929 36.4736 14.7606 36.5016 14.7295C36.5326 14.6936 36.5644 14.6579 36.5944 14.6219L36.5941 28.9336Z"/>
<path d="M11.2023 15.7394C13.5636 16.8924 16.6879 17.5274 19.9995 17.5274C23.3112 17.5274 26.4357 16.8924 28.797 15.7394C31.29 14.5222 32.6629 12.8626 32.6629 11.0666C32.6629 9.27049 31.29 7.61091 28.797 6.39376C26.4357 5.24059 23.3114 4.6056 19.9995 4.6056C16.6877 4.6056 13.5636 5.24059 11.2023 6.39376C8.70888 7.61091 7.33639 9.27049 7.33639 11.0666C7.33639 12.8626 8.70888 14.5222 11.2023 15.7394ZM11.882 7.48039C14.0391 6.42736 16.9217 5.8473 19.9995 5.8473C23.0774 5.8473 25.9606 6.42736 28.1173 7.48039C30.1424 8.46913 31.2577 9.74281 31.2577 11.0664C31.2577 12.39 30.1426 13.6637 28.1173 14.6524C25.9602 15.7056 23.0776 16.2855 19.9995 16.2855C16.9215 16.2855 14.0387 15.7056 11.882 14.6524C9.85689 13.6637 8.7416 12.39 8.7416 11.0664C8.7416 9.74281 9.85689 8.46913 11.882 7.48039Z"/>
<path d="M19.9995 15.0543C24.2603 15.0543 27.5979 13.3027 27.5979 11.0666C27.5979 8.83047 24.2603 7.07866 19.9995 7.07866C15.7388 7.07866 12.4015 8.83031 12.4015 11.0666C12.4015 13.3028 15.7389 15.0543 19.9995 15.0543ZM19.9995 8.32036C23.7042 8.32036 26.1927 9.74038 26.1927 11.0664C26.1927 12.3924 23.7042 13.8124 19.9995 13.8124C16.2949 13.8124 13.8065 12.3926 13.8065 11.0664C13.8065 9.74022 16.2952 8.32036 19.9995 8.32036Z"/>
</mask>
<path d="M32.5704 4.55117C29.2011 2.90612 24.7367 2.00009 19.9995 2.00009C16.9032 2.00009 13.8526 2.39698 11.1776 3.1481C10.3971 3.36606 9.63081 3.62189 8.88218 3.91441C8.79787 3.94752 8.72177 3.99498 8.65821 4.05409C8.59466 4.11319 8.54491 4.18277 8.51179 4.25886C8.44491 4.41254 8.44985 4.5834 8.52553 4.73386C8.60121 4.88432 8.74143 5.00205 8.91535 5.06115C9.00146 5.09041 9.09325 5.1044 9.18548 5.10232C9.27772 5.10024 9.36858 5.08212 9.45289 5.04901C10.1542 4.77515 10.872 4.53561 11.603 4.33148C14.1423 3.61864 17.0458 3.24179 19.9995 3.24179C24.5029 3.24179 28.726 4.09274 31.8907 5.63795C34.9238 7.11888 36.5941 9.04628 36.5941 11.0666C36.5941 13.0868 34.9238 15.0141 31.8907 16.495C28.7258 18.0402 24.5031 18.8912 19.9995 18.8912C15.496 18.8912 11.2732 18.0402 8.10856 16.495C5.07548 15.0141 3.40521 13.0867 3.40521 11.0666C3.40521 9.90805 3.94777 8.78654 5.01772 7.73335C5.43213 7.32532 5.92552 6.9307 6.48416 6.5603C6.62987 6.46043 6.72531 6.31395 6.74989 6.15246C6.77447 5.99096 6.72623 5.8274 6.61557 5.69706C6.5049 5.56672 6.34069 5.48003 6.15836 5.45571C5.97602 5.43139 5.79017 5.47137 5.64089 5.56704C5.00912 5.98589 4.44755 6.43576 3.97208 6.90388C2.68186 8.17368 2 9.61326 2 11.0666V28.9336C2 31.4257 3.92803 33.7395 7.42926 35.449C10.7987 37.0941 15.2629 38.0001 19.9999 38.0001C24.7369 38.0001 29.2013 37.0941 32.5707 35.449C36.0716 33.7395 38 31.4257 38 28.9336V11.0666C37.9993 8.57445 36.0712 6.2605 32.5704 4.55117ZM36.5941 28.9336C36.5941 30.9528 34.9238 32.8813 31.8907 34.3622C28.7258 35.9074 24.5031 36.7584 19.9995 36.7584C15.496 36.7584 11.2732 35.9074 8.10856 34.3622C5.07548 32.8813 3.40521 30.9539 3.40521 28.9336V14.6219C3.43519 14.6579 3.467 14.6936 3.49807 14.7295C3.52568 14.7618 3.55291 14.7941 3.58088 14.8253C3.61635 14.865 3.654 14.9044 3.69056 14.944C3.71671 14.9721 3.74193 15.0004 3.76862 15.0283C3.80994 15.0717 3.85326 15.1147 3.89658 15.1575C3.92017 15.1813 3.94283 15.206 3.96678 15.2288C4.01394 15.2753 4.06312 15.3213 4.11193 15.3674C4.13295 15.3872 4.15306 15.4073 4.17445 15.427C4.22819 15.4767 4.28413 15.526 4.33897 15.5752C4.35725 15.5914 4.3737 15.6076 4.39162 15.6226C4.44975 15.6733 4.50952 15.7234 4.56967 15.7734C4.58648 15.7875 4.60239 15.8017 4.61939 15.8156C4.68593 15.8705 4.75448 15.9248 4.82358 15.9791C4.83473 15.988 4.84552 15.9968 4.85685 16.0057C4.92997 16.0624 5.00437 16.1188 5.07987 16.1747L5.10418 16.1931C5.18401 16.2521 5.26542 16.3105 5.34841 16.3684C5.3528 16.3714 5.357 16.3747 5.36139 16.3776C5.44109 16.4332 5.52225 16.4885 5.60488 16.5433L5.62828 16.5595C5.71712 16.6185 5.80749 16.6768 5.89938 16.7346L5.90468 16.738C5.98731 16.79 6.07176 16.8413 6.15676 16.8925C6.16828 16.8995 6.17943 16.9066 6.19095 16.9134C6.28125 16.9675 6.37375 17.0208 6.46643 17.0739C6.4732 17.0777 6.47959 17.0817 6.48636 17.0856C6.56789 17.1318 6.65088 17.1775 6.73479 17.223C6.75307 17.2335 6.77226 17.244 6.79146 17.2553C6.87865 17.3023 6.96731 17.3487 7.0567 17.3949C7.07316 17.4035 7.08906 17.4122 7.1057 17.4207C7.21184 17.4751 7.31964 17.529 7.42907 17.5823C10.7985 19.2275 15.2627 20.1334 19.9997 20.1334C24.7367 20.1334 29.2011 19.2275 32.5706 17.5823C32.6802 17.529 32.788 17.4751 32.8939 17.4207C32.9106 17.4122 32.9265 17.4035 32.9429 17.3949C33.0323 17.3487 33.121 17.3023 33.2082 17.2553C33.2265 17.2448 33.2458 17.2343 33.2648 17.223C33.3484 17.1775 33.4317 17.1318 33.5133 17.0856C33.52 17.0817 33.5264 17.0777 33.5332 17.0739C33.6262 17.0208 33.7184 16.9675 33.8087 16.9134C33.8202 16.9066 33.8314 16.8995 33.8427 16.8925C33.9279 16.8413 34.0123 16.79 34.095 16.738L34.1003 16.7346C34.192 16.6767 34.2824 16.6184 34.3714 16.5595L34.3948 16.5433C34.4771 16.4886 34.5583 16.4334 34.6382 16.3776C34.6426 16.3747 34.6468 16.3714 34.6512 16.3684C34.7341 16.3104 34.8155 16.252 34.8955 16.1931L34.9198 16.1747C34.9953 16.1188 35.07 16.0624 35.1428 16.0057C35.1541 15.9968 35.1649 15.988 35.1761 15.9791C35.2452 15.9248 35.3135 15.8705 35.3802 15.8156C35.3972 15.8017 35.4132 15.7875 35.43 15.7734C35.4901 15.7234 35.5499 15.6733 35.608 15.6226C35.6263 15.6064 35.6429 15.5903 35.6607 15.5752C35.7164 15.5268 35.772 15.4767 35.8252 15.427C35.8466 15.4073 35.8667 15.3872 35.8877 15.3674C35.9365 15.3213 35.9857 15.2753 36.0329 15.2288C36.0568 15.2052 36.0795 15.1813 36.1031 15.1575C36.1458 15.1146 36.1892 15.0716 36.231 15.0283C36.2577 15.0004 36.2829 14.9721 36.3091 14.944C36.3456 14.9044 36.3822 14.865 36.4188 14.8253C36.4471 14.7929 36.4736 14.7606 36.5016 14.7295C36.5326 14.6936 36.5644 14.6579 36.5944 14.6219L36.5941 28.9336Z" fill="#FF8D40"/>
<path d="M11.2023 15.7394C13.5636 16.8924 16.6879 17.5274 19.9995 17.5274C23.3112 17.5274 26.4357 16.8924 28.797 15.7394C31.29 14.5222 32.6629 12.8626 32.6629 11.0666C32.6629 9.27049 31.29 7.61091 28.797 6.39376C26.4357 5.24059 23.3114 4.6056 19.9995 4.6056C16.6877 4.6056 13.5636 5.24059 11.2023 6.39376C8.70888 7.61091 7.33639 9.27049 7.33639 11.0666C7.33639 12.8626 8.70888 14.5222 11.2023 15.7394ZM11.882 7.48039C14.0391 6.42736 16.9217 5.8473 19.9995 5.8473C23.0774 5.8473 25.9606 6.42736 28.1173 7.48039C30.1424 8.46913 31.2577 9.74281 31.2577 11.0664C31.2577 12.39 30.1426 13.6637 28.1173 14.6524C25.9602 15.7056 23.0776 16.2855 19.9995 16.2855C16.9215 16.2855 14.0387 15.7056 11.882 14.6524C9.85689 13.6637 8.7416 12.39 8.7416 11.0664C8.7416 9.74281 9.85689 8.46913 11.882 7.48039Z" fill="#FF8D40"/>
<path d="M19.9995 15.0543C24.2603 15.0543 27.5979 13.3027 27.5979 11.0666C27.5979 8.83047 24.2603 7.07866 19.9995 7.07866C15.7388 7.07866 12.4015 8.83031 12.4015 11.0666C12.4015 13.3028 15.7389 15.0543 19.9995 15.0543ZM19.9995 8.32036C23.7042 8.32036 26.1927 9.74038 26.1927 11.0664C26.1927 12.3924 23.7042 13.8124 19.9995 13.8124C16.2949 13.8124 13.8065 12.3926 13.8065 11.0664C13.8065 9.74022 16.2952 8.32036 19.9995 8.32036Z" fill="#FF8D40"/>
<path d="M32.5704 4.55117C29.2011 2.90612 24.7367 2.00009 19.9995 2.00009C16.9032 2.00009 13.8526 2.39698 11.1776 3.1481C10.3971 3.36606 9.63081 3.62189 8.88218 3.91441C8.79787 3.94752 8.72177 3.99498 8.65821 4.05409C8.59466 4.11319 8.54491 4.18277 8.51179 4.25886C8.44491 4.41254 8.44985 4.5834 8.52553 4.73386C8.60121 4.88432 8.74143 5.00205 8.91535 5.06115C9.00146 5.09041 9.09325 5.1044 9.18548 5.10232C9.27772 5.10024 9.36858 5.08212 9.45289 5.04901C10.1542 4.77515 10.872 4.53561 11.603 4.33148C14.1423 3.61864 17.0458 3.24179 19.9995 3.24179C24.5029 3.24179 28.726 4.09274 31.8907 5.63795C34.9238 7.11888 36.5941 9.04628 36.5941 11.0666C36.5941 13.0868 34.9238 15.0141 31.8907 16.495C28.7258 18.0402 24.5031 18.8912 19.9995 18.8912C15.496 18.8912 11.2732 18.0402 8.10856 16.495C5.07548 15.0141 3.40521 13.0867 3.40521 11.0666C3.40521 9.90805 3.94777 8.78654 5.01772 7.73335C5.43213 7.32532 5.92552 6.9307 6.48416 6.5603C6.62987 6.46043 6.72531 6.31395 6.74989 6.15246C6.77447 5.99096 6.72623 5.8274 6.61557 5.69706C6.5049 5.56672 6.34069 5.48003 6.15836 5.45571C5.97602 5.43139 5.79017 5.47137 5.64089 5.56704C5.00912 5.98589 4.44755 6.43576 3.97208 6.90388C2.68186 8.17368 2 9.61326 2 11.0666V28.9336C2 31.4257 3.92803 33.7395 7.42926 35.449C10.7987 37.0941 15.2629 38.0001 19.9999 38.0001C24.7369 38.0001 29.2013 37.0941 32.5707 35.449C36.0716 33.7395 38 31.4257 38 28.9336V11.0666C37.9993 8.57445 36.0712 6.2605 32.5704 4.55117ZM36.5941 28.9336C36.5941 30.9528 34.9238 32.8813 31.8907 34.3622C28.7258 35.9074 24.5031 36.7584 19.9995 36.7584C15.496 36.7584 11.2732 35.9074 8.10856 34.3622C5.07548 32.8813 3.40521 30.9539 3.40521 28.9336V14.6219C3.43519 14.6579 3.467 14.6936 3.49807 14.7295C3.52568 14.7618 3.55291 14.7941 3.58088 14.8253C3.61635 14.865 3.654 14.9044 3.69056 14.944C3.71671 14.9721 3.74193 15.0004 3.76862 15.0283C3.80994 15.0717 3.85326 15.1147 3.89658 15.1575C3.92017 15.1813 3.94283 15.206 3.96678 15.2288C4.01394 15.2753 4.06312 15.3213 4.11193 15.3674C4.13295 15.3872 4.15306 15.4073 4.17445 15.427C4.22819 15.4767 4.28413 15.526 4.33897 15.5752C4.35725 15.5914 4.3737 15.6076 4.39162 15.6226C4.44975 15.6733 4.50952 15.7234 4.56967 15.7734C4.58648 15.7875 4.60239 15.8017 4.61939 15.8156C4.68593 15.8705 4.75448 15.9248 4.82358 15.9791C4.83473 15.988 4.84552 15.9968 4.85685 16.0057C4.92997 16.0624 5.00437 16.1188 5.07987 16.1747L5.10418 16.1931C5.18401 16.2521 5.26542 16.3105 5.34841 16.3684C5.3528 16.3714 5.357 16.3747 5.36139 16.3776C5.44109 16.4332 5.52225 16.4885 5.60488 16.5433L5.62828 16.5595C5.71712 16.6185 5.80749 16.6768 5.89938 16.7346L5.90468 16.738C5.98731 16.79 6.07176 16.8413 6.15676 16.8925C6.16828 16.8995 6.17943 16.9066 6.19095 16.9134C6.28125 16.9675 6.37375 17.0208 6.46643 17.0739C6.4732 17.0777 6.47959 17.0817 6.48636 17.0856C6.56789 17.1318 6.65088 17.1775 6.73479 17.223C6.75307 17.2335 6.77226 17.244 6.79146 17.2553C6.87865 17.3023 6.96731 17.3487 7.0567 17.3949C7.07316 17.4035 7.08906 17.4122 7.1057 17.4207C7.21184 17.4751 7.31964 17.529 7.42907 17.5823C10.7985 19.2275 15.2627 20.1334 19.9997 20.1334C24.7367 20.1334 29.2011 19.2275 32.5706 17.5823C32.6802 17.529 32.788 17.4751 32.8939 17.4207C32.9106 17.4122 32.9265 17.4035 32.9429 17.3949C33.0323 17.3487 33.121 17.3023 33.2082 17.2553C33.2265 17.2448 33.2458 17.2343 33.2648 17.223C33.3484 17.1775 33.4317 17.1318 33.5133 17.0856C33.52 17.0817 33.5264 17.0777 33.5332 17.0739C33.6262 17.0208 33.7184 16.9675 33.8087 16.9134C33.8202 16.9066 33.8314 16.8995 33.8427 16.8925C33.9279 16.8413 34.0123 16.79 34.095 16.738L34.1003 16.7346C34.192 16.6767 34.2824 16.6184 34.3714 16.5595L34.3948 16.5433C34.4771 16.4886 34.5583 16.4334 34.6382 16.3776C34.6426 16.3747 34.6468 16.3714 34.6512 16.3684C34.7341 16.3104 34.8155 16.252 34.8955 16.1931L34.9198 16.1747C34.9953 16.1188 35.07 16.0624 35.1428 16.0057C35.1541 15.9968 35.1649 15.988 35.1761 15.9791C35.2452 15.9248 35.3135 15.8705 35.3802 15.8156C35.3972 15.8017 35.4132 15.7875 35.43 15.7734C35.4901 15.7234 35.5499 15.6733 35.608 15.6226C35.6263 15.6064 35.6429 15.5903 35.6607 15.5752C35.7164 15.5268 35.772 15.4767 35.8252 15.427C35.8466 15.4073 35.8667 15.3872 35.8877 15.3674C35.9365 15.3213 35.9857 15.2753 36.0329 15.2288C36.0568 15.2052 36.0795 15.1813 36.1031 15.1575C36.1458 15.1146 36.1892 15.0716 36.231 15.0283C36.2577 15.0004 36.2829 14.9721 36.3091 14.944C36.3456 14.9044 36.3822 14.865 36.4188 14.8253C36.4471 14.7929 36.4736 14.7606 36.5016 14.7295C36.5326 14.6936 36.5644 14.6579 36.5944 14.6219L36.5941 28.9336Z" stroke="#FF8D40" mask="url(#path-1-inside-1_803_16102)"/>
<path d="M11.2023 15.7394C13.5636 16.8924 16.6879 17.5274 19.9995 17.5274C23.3112 17.5274 26.4357 16.8924 28.797 15.7394C31.29 14.5222 32.6629 12.8626 32.6629 11.0666C32.6629 9.27049 31.29 7.61091 28.797 6.39376C26.4357 5.24059 23.3114 4.6056 19.9995 4.6056C16.6877 4.6056 13.5636 5.24059 11.2023 6.39376C8.70888 7.61091 7.33639 9.27049 7.33639 11.0666C7.33639 12.8626 8.70888 14.5222 11.2023 15.7394ZM11.882 7.48039C14.0391 6.42736 16.9217 5.8473 19.9995 5.8473C23.0774 5.8473 25.9606 6.42736 28.1173 7.48039C30.1424 8.46913 31.2577 9.74281 31.2577 11.0664C31.2577 12.39 30.1426 13.6637 28.1173 14.6524C25.9602 15.7056 23.0776 16.2855 19.9995 16.2855C16.9215 16.2855 14.0387 15.7056 11.882 14.6524C9.85689 13.6637 8.7416 12.39 8.7416 11.0664C8.7416 9.74281 9.85689 8.46913 11.882 7.48039Z" stroke="#FF8D40" mask="url(#path-1-inside-1_803_16102)"/>
<path d="M19.9995 15.0543C24.2603 15.0543 27.5979 13.3027 27.5979 11.0666C27.5979 8.83047 24.2603 7.07866 19.9995 7.07866C15.7388 7.07866 12.4015 8.83031 12.4015 11.0666C12.4015 13.3028 15.7389 15.0543 19.9995 15.0543ZM19.9995 8.32036C23.7042 8.32036 26.1927 9.74038 26.1927 11.0664C26.1927 12.3924 23.7042 13.8124 19.9995 13.8124C16.2949 13.8124 13.8065 12.3926 13.8065 11.0664C13.8065 9.74022 16.2952 8.32036 19.9995 8.32036Z" stroke="#FF8D40" mask="url(#path-1-inside-1_803_16102)"/>
</svg>
