<svg width="40" height="40" viewBox="0 0 40 40" fill="none" xmlns="http://www.w3.org/2000/svg">
<path d="M25.0599 13.375H14.9001C12.9133 13.375 11.2973 15.0049 11.2973 17.0081V27.2532C11.2973 29.2567 12.9136 30.8863 14.9001 30.8863H25.0599C27.0467 30.8863 28.6628 29.2564 28.6628 27.2532V17.0084C28.6631 15.0049 27.0467 13.375 25.0599 13.375ZM27.388 17.0081V25.2932C25.9392 24.9202 23.527 23.9618 21.672 21.5364C19.6883 18.9429 19.4694 16.1604 19.5295 14.6602H25.0599C26.3436 14.6608 27.3886 15.7139 27.3886 17.0084L27.388 17.0081ZM12.5721 17.0081C12.5721 15.7136 13.6164 14.6605 14.9001 14.6605H18.2541C18.2006 16.1936 18.4136 18.8583 20.0774 21.4814C19.5823 22.811 18.8028 24.0168 17.8104 24.9843C16.0156 26.7335 13.9361 27.3446 12.5918 27.5552C12.5789 27.4552 12.5723 27.3544 12.5721 27.2535V17.0081ZM27.3886 27.2535C27.3886 28.548 26.3442 29.6011 25.0606 29.6011H14.9001C14.5615 29.6011 14.227 29.5264 13.92 29.3823C13.613 29.2382 13.3409 29.0282 13.1229 28.7669C14.6392 28.4814 16.8039 27.7526 18.6963 25.9087C19.6325 24.9965 20.4009 23.898 20.9565 22.6887C23.1359 25.3121 25.8826 26.272 27.388 26.6155L27.3886 27.2535Z" fill="#FF8D40"/>
<path d="M37.9598 13.792V11.089C37.9598 7.18021 34.8062 4.00009 30.93 4.00009H9.02982C5.15363 4.00009 2 7.18021 2 11.089V13.792C2.00016 14.1826 2.15386 14.5573 2.42742 14.8339C2.70099 15.1106 3.07212 15.2666 3.45953 15.2678C3.58209 15.2676 3.70415 15.2521 3.82288 15.2214L6.2262 14.6061V30.4821C6.2262 33.5248 8.68103 36.0001 11.6984 36.0001H28.2614C31.2788 36.0001 33.7336 33.5248 33.7336 30.4821V14.6064L36.1369 15.2217C36.3951 15.2877 36.6662 15.2815 36.9211 15.2037C37.176 15.126 37.4051 14.9797 37.5837 14.7805C37.664 14.751 37.7375 14.7055 37.7999 14.6466C37.8623 14.5877 37.9121 14.5167 37.9465 14.4378C37.9809 14.3589 37.9991 14.2738 38 14.1877C38.0009 14.1015 37.9844 14.0161 37.9517 13.9365C37.9569 13.8888 37.9598 13.8407 37.9598 13.792ZM36.6847 11.089V12.259L31.2956 5.29873C34.299 5.48982 36.6847 8.01304 36.6847 11.089ZM25.0177 5.28574L27.3219 8.26179H22.0569L19.7535 5.28574H25.0177ZM18.1339 5.28574L20.4382 8.26179H15.2405L12.9364 5.28574H18.1339ZM9.02874 5.28574H11.3247C11.3376 5.30718 11.3517 5.32783 11.3669 5.34758L13.6229 8.26179H11.6984C11.6064 8.26179 11.5152 8.26416 11.4247 8.2689C11.394 8.27029 11.3652 8.27339 11.3353 8.27539C11.2749 8.27941 11.2144 8.28328 11.1546 8.28931C11.119 8.29271 11.0839 8.29781 11.0486 8.30214C10.995 8.30848 10.9413 8.31466 10.8881 8.3227C10.8507 8.32827 10.8138 8.33538 10.7765 8.34172C10.7261 8.35038 10.6756 8.35888 10.6256 8.36893C10.5876 8.37666 10.5501 8.38547 10.5123 8.39382C10.4639 8.40464 10.4155 8.41546 10.3676 8.42768C10.3296 8.43726 10.292 8.44793 10.2543 8.4586C10.2074 8.47158 10.1605 8.48457 10.114 8.49879C10.0765 8.51039 10.0392 8.5226 10.002 8.53497C9.95598 8.55043 9.90998 8.56589 9.86567 8.58135C9.82857 8.59464 9.79178 8.60856 9.75514 8.62278C9.71068 8.63979 9.66647 8.65736 9.62252 8.6755C9.58614 8.69065 9.55 8.70611 9.51413 8.72188C9.47069 8.74105 9.42761 8.76074 9.38489 8.78094C9.34952 8.79763 9.31431 8.81464 9.27926 8.83195C9.23674 8.85329 9.19463 8.87509 9.15293 8.89735C9.11874 8.91559 9.0844 8.93399 9.05067 8.95301C9.00912 8.9762 8.96803 9.00031 8.92725 9.02459C8.89414 9.04422 8.86117 9.06385 8.82852 9.08411C8.78774 9.10962 8.74772 9.1359 8.70756 9.16233C8.67613 9.18321 8.64439 9.20392 8.61342 9.22526C8.5731 9.25308 8.5337 9.28199 8.49414 9.3109C8.46456 9.33255 8.43451 9.35388 8.40538 9.37615C8.36521 9.40707 8.32611 9.43799 8.28702 9.46999C8.25958 9.4921 8.23168 9.51389 8.20454 9.53662L8.18599 9.55208L5.71015 6.35341C6.67972 5.65815 7.8401 5.28495 9.02982 5.28574H9.02874ZM3.50905 13.9756C3.48132 13.9827 3.45236 13.9833 3.42438 13.9773C3.39639 13.9714 3.37012 13.9591 3.34755 13.9414C3.32498 13.9237 3.30671 13.9011 3.29412 13.8752C3.28154 13.8493 3.27498 13.8208 3.27494 13.792V11.089C3.27379 9.65518 3.80113 8.27215 4.75456 7.2085L7.30168 10.4988C7.28911 10.516 7.27731 10.5338 7.26489 10.5511C7.23423 10.5933 7.20356 10.6355 7.17489 10.6785C7.15466 10.7086 7.13534 10.7394 7.11556 10.7699C7.08858 10.8116 7.06144 10.8533 7.03538 10.8959C7.01576 10.9279 6.99721 10.9606 6.9782 10.9933C6.95367 11.0353 6.92929 11.0772 6.90583 11.1199C6.88728 11.1537 6.86965 11.1881 6.85187 11.2222C6.82964 11.2647 6.80771 11.3073 6.78656 11.3504C6.76938 11.3858 6.75298 11.4213 6.73642 11.4571C6.71649 11.5002 6.69687 11.5435 6.67801 11.5872C6.66268 11.6237 6.64735 11.6605 6.63202 11.6975C6.61413 11.7414 6.59681 11.7856 6.58004 11.8301C6.56594 11.8676 6.55224 11.9053 6.53896 11.9433C6.52363 11.9881 6.50829 12.0331 6.49296 12.0784C6.48049 12.1169 6.46843 12.1556 6.45678 12.1943C6.44314 12.2407 6.43026 12.2862 6.41784 12.3322C6.40726 12.3715 6.39684 12.4108 6.38718 12.4502C6.37568 12.4966 6.36525 12.5442 6.35483 12.5914C6.34609 12.6311 6.3375 12.6708 6.32953 12.7109C6.32018 12.7588 6.31205 12.807 6.30393 12.8553C6.29718 12.8955 6.29028 12.9355 6.28431 12.9758C6.27725 13.0252 6.27143 13.0748 6.2656 13.1244C6.26085 13.1645 6.25564 13.2045 6.2518 13.2449C6.25088 13.2546 6.24935 13.2642 6.24843 13.2741L3.50905 13.9756ZM32.4585 30.4821C32.4585 32.8166 30.5757 34.7144 28.2614 34.7144H11.6984C9.38335 34.7144 7.5013 32.8158 7.5013 30.4821V13.7799C7.5013 11.4455 9.38412 9.5476 11.6984 9.5476H28.2614C30.5764 9.5476 32.4585 11.4462 32.4585 13.7799V30.4821ZM33.7108 13.2741C33.7098 13.2639 33.7083 13.254 33.7074 13.2432C33.7036 13.2042 33.6985 13.1659 33.694 13.127C33.6881 13.0759 33.6821 13.0247 33.6747 12.974C33.6691 12.9349 33.6623 12.8967 33.6557 12.8574C33.6474 12.8076 33.639 12.758 33.6293 12.7089C33.6218 12.67 33.6133 12.6316 33.605 12.5932C33.5942 12.5445 33.5835 12.4961 33.5715 12.4479C33.5622 12.4097 33.5521 12.3717 33.5418 12.3338C33.5289 12.2863 33.5157 12.2389 33.5018 12.1919C33.4906 12.1543 33.4788 12.1169 33.4668 12.0796C33.4518 12.0329 33.4365 11.9866 33.4208 11.9405C33.408 11.9037 33.3947 11.8672 33.3811 11.831C33.364 11.7852 33.3461 11.7396 33.3276 11.6944C33.3131 11.6587 33.2985 11.6231 33.2833 11.5879C33.2639 11.5429 33.2436 11.4982 33.2231 11.4538C33.2077 11.4193 33.1912 11.385 33.1746 11.3508C33.1529 11.3065 33.1302 11.2624 33.1073 11.2187C33.0902 11.1857 33.0731 11.1527 33.0553 11.1202C33.0311 11.076 33.006 11.0325 32.9805 10.9892C32.9624 10.9583 32.9445 10.9266 32.9258 10.8965C32.8988 10.8521 32.8706 10.8088 32.8424 10.7654C32.8237 10.7366 32.8056 10.7076 32.7863 10.6791C32.7556 10.634 32.7239 10.5898 32.692 10.5455C32.6736 10.52 32.656 10.4941 32.6371 10.4682C32.6008 10.4195 32.5631 10.3721 32.5252 10.3246C32.5099 10.305 32.4945 10.2849 32.4792 10.2656C32.37 10.1325 32.2549 10.0047 32.1336 9.88231C32.1183 9.86685 32.103 9.85262 32.0876 9.83763C32.0416 9.79264 31.9957 9.74765 31.9489 9.70421C31.9265 9.68364 31.9029 9.66401 31.8805 9.64376C31.8394 9.60712 31.7982 9.57032 31.756 9.53554C31.73 9.51374 31.7031 9.49287 31.6766 9.47153C31.6364 9.43907 31.5964 9.4066 31.5553 9.37537C31.5268 9.35357 31.4975 9.3327 31.4687 9.31152C31.4284 9.28215 31.3882 9.25278 31.3473 9.22448C31.3166 9.20346 31.286 9.18321 31.2553 9.16264C31.2147 9.13574 31.1739 9.109 31.1327 9.08318C31.1006 9.06308 31.0681 9.04391 31.0356 9.02459C30.9947 8.99985 30.9531 8.97568 30.9107 8.95208C30.8772 8.93322 30.8434 8.91513 30.8095 8.89704C30.7673 8.87462 30.7248 8.85252 30.6819 8.83118C30.6474 8.81387 30.6125 8.79701 30.5775 8.78047C30.5344 8.75986 30.4909 8.74002 30.4472 8.72095C30.4115 8.70549 30.3758 8.69003 30.3399 8.67457C30.2956 8.65633 30.2512 8.63865 30.2065 8.62154C30.17 8.60748 30.1334 8.59356 30.0966 8.58042C30.0506 8.56403 30.0055 8.54873 29.9597 8.53404C29.9226 8.52183 29.8855 8.50961 29.8481 8.49817C29.8021 8.4838 29.7544 8.47081 29.7073 8.45767C29.6698 8.44731 29.6324 8.4368 29.5945 8.42675C29.5465 8.41453 29.4979 8.40371 29.4494 8.39289C29.4117 8.38454 29.3743 8.37573 29.3363 8.368C29.2863 8.35795 29.2357 8.34945 29.1851 8.34079C29.148 8.3343 29.1112 8.32734 29.0738 8.32177C29.0364 8.31621 29.0022 8.31219 28.9665 8.30755C28.9499 8.27624 28.9307 8.24635 28.9092 8.21819L26.6359 5.28574H29.6681L36.3831 13.9588L33.7108 13.2741Z" fill="#FF8D40"/>
<path d="M25.0599 13.375H14.9001C12.9133 13.375 11.2973 15.0049 11.2973 17.0081V27.2532C11.2973 29.2567 12.9136 30.8863 14.9001 30.8863H25.0599C27.0467 30.8863 28.6628 29.2564 28.6628 27.2532V17.0084C28.6631 15.0049 27.0467 13.375 25.0599 13.375ZM27.388 17.0081V25.2932C25.9392 24.9202 23.527 23.9618 21.672 21.5364C19.6883 18.9429 19.4694 16.1604 19.5295 14.6602H25.0599C26.3436 14.6608 27.3886 15.7139 27.3886 17.0084L27.388 17.0081ZM12.5721 17.0081C12.5721 15.7136 13.6164 14.6605 14.9001 14.6605H18.2541C18.2006 16.1936 18.4136 18.8583 20.0774 21.4814C19.5823 22.811 18.8028 24.0168 17.8104 24.9843C16.0156 26.7335 13.9361 27.3446 12.5918 27.5552C12.5789 27.4552 12.5723 27.3544 12.5721 27.2535V17.0081ZM27.3886 27.2535C27.3886 28.548 26.3442 29.6011 25.0606 29.6011H14.9001C14.5615 29.6011 14.227 29.5264 13.92 29.3823C13.613 29.2382 13.3409 29.0282 13.1229 28.7669C14.6392 28.4814 16.8039 27.7526 18.6963 25.9087C19.6325 24.9965 20.4009 23.898 20.9565 22.6887C23.1359 25.3121 25.8826 26.272 27.388 26.6155L27.3886 27.2535Z" stroke="#FF8D40" stroke-width="0.5"/>
<path d="M37.9598 13.792V11.089C37.9598 7.18021 34.8062 4.00009 30.93 4.00009H9.02982C5.15363 4.00009 2 7.18021 2 11.089V13.792C2.00016 14.1826 2.15386 14.5573 2.42742 14.8339C2.70099 15.1106 3.07212 15.2666 3.45953 15.2678C3.58209 15.2676 3.70415 15.2521 3.82288 15.2214L6.2262 14.6061V30.4821C6.2262 33.5248 8.68103 36.0001 11.6984 36.0001H28.2614C31.2788 36.0001 33.7336 33.5248 33.7336 30.4821V14.6064L36.1369 15.2217C36.3951 15.2877 36.6662 15.2815 36.9211 15.2037C37.176 15.126 37.4051 14.9797 37.5837 14.7805C37.664 14.751 37.7375 14.7055 37.7999 14.6466C37.8623 14.5877 37.9121 14.5167 37.9465 14.4378C37.9809 14.3589 37.9991 14.2738 38 14.1877C38.0009 14.1015 37.9844 14.0161 37.9517 13.9365C37.9569 13.8888 37.9598 13.8407 37.9598 13.792ZM36.6847 11.089V12.259L31.2956 5.29873C34.299 5.48982 36.6847 8.01304 36.6847 11.089ZM25.0177 5.28574L27.3219 8.26179H22.0569L19.7535 5.28574H25.0177ZM18.1339 5.28574L20.4382 8.26179H15.2405L12.9364 5.28574H18.1339ZM9.02874 5.28574H11.3247C11.3376 5.30718 11.3517 5.32783 11.3669 5.34758L13.6229 8.26179H11.6984C11.6064 8.26179 11.5152 8.26416 11.4247 8.2689C11.394 8.27029 11.3652 8.27339 11.3353 8.27539C11.2749 8.27941 11.2144 8.28328 11.1546 8.28931C11.119 8.29271 11.0839 8.29781 11.0486 8.30214C10.995 8.30848 10.9413 8.31466 10.8881 8.3227C10.8507 8.32827 10.8138 8.33538 10.7765 8.34172C10.7261 8.35038 10.6756 8.35888 10.6256 8.36893C10.5876 8.37666 10.5501 8.38547 10.5123 8.39382C10.4639 8.40464 10.4155 8.41546 10.3676 8.42768C10.3296 8.43726 10.292 8.44793 10.2543 8.4586C10.2074 8.47158 10.1605 8.48457 10.114 8.49879C10.0765 8.51039 10.0392 8.5226 10.002 8.53497C9.95598 8.55043 9.90998 8.56589 9.86567 8.58135C9.82857 8.59464 9.79178 8.60856 9.75514 8.62278C9.71068 8.63979 9.66647 8.65736 9.62252 8.6755C9.58614 8.69065 9.55 8.70611 9.51413 8.72188C9.47069 8.74105 9.42761 8.76074 9.38489 8.78094C9.34952 8.79763 9.31431 8.81464 9.27926 8.83195C9.23674 8.85329 9.19463 8.87509 9.15293 8.89735C9.11874 8.91559 9.0844 8.93399 9.05067 8.95301C9.00912 8.9762 8.96803 9.00031 8.92725 9.02459C8.89414 9.04422 8.86117 9.06385 8.82852 9.08411C8.78774 9.10962 8.74772 9.1359 8.70756 9.16233C8.67613 9.18321 8.64439 9.20392 8.61342 9.22526C8.5731 9.25308 8.5337 9.28199 8.49414 9.3109C8.46456 9.33255 8.43451 9.35388 8.40538 9.37615C8.36521 9.40707 8.32611 9.43799 8.28702 9.46999C8.25958 9.4921 8.23168 9.51389 8.20454 9.53662L8.18599 9.55208L5.71015 6.35341C6.67972 5.65815 7.8401 5.28495 9.02982 5.28574H9.02874ZM3.50905 13.9756C3.48132 13.9827 3.45236 13.9833 3.42438 13.9773C3.39639 13.9714 3.37012 13.9591 3.34755 13.9414C3.32498 13.9237 3.30671 13.9011 3.29412 13.8752C3.28154 13.8493 3.27498 13.8208 3.27494 13.792V11.089C3.27379 9.65518 3.80113 8.27215 4.75456 7.2085L7.30168 10.4988C7.28911 10.516 7.27731 10.5338 7.26489 10.5511C7.23423 10.5933 7.20356 10.6355 7.17489 10.6785C7.15466 10.7086 7.13534 10.7394 7.11556 10.7699C7.08858 10.8116 7.06144 10.8533 7.03538 10.8959C7.01576 10.9279 6.99721 10.9606 6.9782 10.9933C6.95367 11.0353 6.92929 11.0772 6.90583 11.1199C6.88728 11.1537 6.86965 11.1881 6.85187 11.2222C6.82964 11.2647 6.80771 11.3073 6.78656 11.3504C6.76938 11.3858 6.75298 11.4213 6.73642 11.4571C6.71649 11.5002 6.69687 11.5435 6.67801 11.5872C6.66268 11.6237 6.64735 11.6605 6.63202 11.6975C6.61413 11.7414 6.59681 11.7856 6.58004 11.8301C6.56594 11.8676 6.55224 11.9053 6.53896 11.9433C6.52363 11.9881 6.50829 12.0331 6.49296 12.0784C6.48049 12.1169 6.46843 12.1556 6.45678 12.1943C6.44314 12.2407 6.43026 12.2862 6.41784 12.3322C6.40726 12.3715 6.39684 12.4108 6.38718 12.4502C6.37568 12.4966 6.36525 12.5442 6.35483 12.5914C6.34609 12.6311 6.3375 12.6708 6.32953 12.7109C6.32018 12.7588 6.31205 12.807 6.30393 12.8553C6.29718 12.8955 6.29028 12.9355 6.28431 12.9758C6.27725 13.0252 6.27143 13.0748 6.2656 13.1244C6.26085 13.1645 6.25564 13.2045 6.2518 13.2449C6.25088 13.2546 6.24935 13.2642 6.24843 13.2741L3.50905 13.9756ZM32.4585 30.4821C32.4585 32.8166 30.5757 34.7144 28.2614 34.7144H11.6984C9.38335 34.7144 7.5013 32.8158 7.5013 30.4821V13.7799C7.5013 11.4455 9.38412 9.5476 11.6984 9.5476H28.2614C30.5764 9.5476 32.4585 11.4462 32.4585 13.7799V30.4821ZM33.7108 13.2741C33.7098 13.2639 33.7083 13.254 33.7074 13.2432C33.7036 13.2042 33.6985 13.1659 33.694 13.127C33.6881 13.0759 33.6821 13.0247 33.6747 12.974C33.6691 12.9349 33.6623 12.8967 33.6557 12.8574C33.6474 12.8076 33.639 12.758 33.6293 12.7089C33.6218 12.67 33.6133 12.6316 33.605 12.5932C33.5942 12.5445 33.5835 12.4961 33.5715 12.4479C33.5622 12.4097 33.5521 12.3717 33.5418 12.3338C33.5289 12.2863 33.5157 12.2389 33.5018 12.1919C33.4906 12.1543 33.4788 12.1169 33.4668 12.0796C33.4518 12.0329 33.4365 11.9866 33.4208 11.9405C33.408 11.9037 33.3947 11.8672 33.3811 11.831C33.364 11.7852 33.3461 11.7396 33.3276 11.6944C33.3131 11.6587 33.2985 11.6231 33.2833 11.5879C33.2639 11.5429 33.2436 11.4982 33.2231 11.4538C33.2077 11.4193 33.1912 11.385 33.1746 11.3508C33.1529 11.3065 33.1302 11.2624 33.1073 11.2187C33.0902 11.1857 33.0731 11.1527 33.0553 11.1202C33.0311 11.076 33.006 11.0325 32.9805 10.9892C32.9624 10.9583 32.9445 10.9266 32.9258 10.8965C32.8988 10.8521 32.8706 10.8088 32.8424 10.7654C32.8237 10.7366 32.8056 10.7076 32.7863 10.6791C32.7556 10.634 32.7239 10.5898 32.692 10.5455C32.6736 10.52 32.656 10.4941 32.6371 10.4682C32.6008 10.4195 32.5631 10.3721 32.5252 10.3246C32.5099 10.305 32.4945 10.2849 32.4792 10.2656C32.37 10.1325 32.2549 10.0047 32.1336 9.88231C32.1183 9.86685 32.103 9.85262 32.0876 9.83763C32.0416 9.79264 31.9957 9.74765 31.9489 9.70421C31.9265 9.68364 31.9029 9.66401 31.8805 9.64376C31.8394 9.60712 31.7982 9.57032 31.756 9.53554C31.73 9.51374 31.7031 9.49287 31.6766 9.47153C31.6364 9.43907 31.5964 9.4066 31.5553 9.37537C31.5268 9.35357 31.4975 9.3327 31.4687 9.31152C31.4284 9.28215 31.3882 9.25278 31.3473 9.22448C31.3166 9.20346 31.286 9.18321 31.2553 9.16264C31.2147 9.13574 31.1739 9.109 31.1327 9.08318C31.1006 9.06308 31.0681 9.04391 31.0356 9.02459C30.9947 8.99985 30.9531 8.97568 30.9107 8.95208C30.8772 8.93322 30.8434 8.91513 30.8095 8.89704C30.7673 8.87462 30.7248 8.85252 30.6819 8.83118C30.6474 8.81387 30.6125 8.79701 30.5775 8.78047C30.5344 8.75986 30.4909 8.74002 30.4472 8.72095C30.4115 8.70549 30.3758 8.69003 30.3399 8.67457C30.2956 8.65633 30.2512 8.63865 30.2065 8.62154C30.17 8.60748 30.1334 8.59356 30.0966 8.58042C30.0506 8.56403 30.0055 8.54873 29.9597 8.53404C29.9226 8.52183 29.8855 8.50961 29.8481 8.49817C29.8021 8.4838 29.7544 8.47081 29.7073 8.45767C29.6698 8.44731 29.6324 8.4368 29.5945 8.42675C29.5465 8.41453 29.4979 8.40371 29.4494 8.39289C29.4117 8.38454 29.3743 8.37573 29.3363 8.368C29.2863 8.35795 29.2357 8.34945 29.1851 8.34079C29.148 8.3343 29.1112 8.32734 29.0738 8.32177C29.0364 8.31621 29.0022 8.31219 28.9665 8.30755C28.9499 8.27624 28.9307 8.24635 28.9092 8.21819L26.6359 5.28574H29.6681L36.3831 13.9588L33.7108 13.2741Z" stroke="#FF8D40" stroke-width="0.5"/>
</svg>
